Coordinates
version=1
nRows=11
nColumns=63
inDegrees=yes

Units are S.I. units (second, meters, Newtons, ...)
If the header above contains a line with 'inDegrees', this indicates whether rotational values are in degrees (yes) or radians (no).

endheader
time	pelvis_tilt	pelvis_list	pelvis_rotation	pelvis_tx	pelvis_ty	pelvis_tz	hip_flexion_r	hip_adduction_r	hip_rotation_r	knee_angle_r	knee_angle_r_beta	ankle_angle_r	subtalar_angle_r	mtp_angle_r	hip_flexion_l	hip_adduction_l	hip_rotation_l	knee_angle_l	knee_angle_l_beta	ankle_angle_l	subtalar_angle_l	mtp_angle_l	L5_S1_Flex_Ext	L5_S1_Lat_Bending	L5_S1_axial_rotation	L4_L5_Flex_Ext	L4_L5_Lat_Bending	L4_L5_axial_rotation	L3_L4_Flex_Ext	L3_L4_Lat_Bending	L3_L4_axial_rotation	L2_L3_Flex_Ext	L2_L3_Lat_Bending	L2_L3_axial_rotation	L1_L2_Flex_Ext	L1_L2_Lat_Bending	L1_L2_axial_rotation	L1_T12_Flex_Ext	L1_T12_Lat_Bending	L1_T12_axial_rotation	Abs_r3	Abs_r2	Abs_r1	Abs_t1	Abs_t2	neck_flexion	neck_bending	neck_rotation	arm_flex_r	arm_add_r	arm_rot_r	elbow_flex_r	pro_sup_r	wrist_flex_r	wrist_dev_r	arm_flex_l	arm_add_l	arm_rot_l	elbow_flex_l	pro_sup_l	wrist_flex_l	wrist_dev_l
2.350000	-2.426509	-4.798839	78.886079	0.347875	0.921509	0.540098	-9.464001	-1.805724	23.365396	0.678832	0.011848	25.734611	-10.665075	0.000000	-4.427552	0.884542	-6.022044	12.555116	0.219128	30.417873	-13.986591	0.000000	-0.011936	0.144158	-0.931993	-0.022166	0.191730	-0.990242	-0.019609	0.350506	-0.990242	-0.013641	0.350506	-0.815494	-0.011084	0.293967	-0.757244	-0.006820	0.223301	-0.698995	-0.085256	1.630745	-5.183464	0.000000	0.000000	7.446819	-0.606121	-16.329490	-2.610448	-11.516072	13.334748	138.048508	87.774940	1.068282	21.474760	12.788047	-17.544784	93.190485	4.913005	2.772443	-4.581501	-13.394299
2.366667	-2.429244	-4.723670	79.046542	0.347520	0.922304	0.540143	-9.487032	-1.780560	23.027174	0.814160	0.014210	25.523366	-10.524927	0.000000	-4.472990	0.907508	-5.604325	12.440771	0.217132	30.376421	-14.000466	0.000000	-0.003284	0.167103	-0.793682	-0.006099	0.222247	-0.843287	-0.005395	0.406294	-0.843287	-0.003753	0.406294	-0.694472	-0.003050	0.340756	-0.644867	-0.001876	0.258843	-0.595262	-0.023457	1.890302	-4.414223	0.000000	0.000000	7.145632	-1.192752	-16.150178	-4.755653	-11.157997	12.444219	136.348365	87.539599	-1.412942	21.766163	14.307423	-17.376381	91.879500	5.522453	2.728843	-3.332189	-14.309503
2.383333	-2.418659	-4.618846	79.236824	0.347100	0.923112	0.540234	-9.534950	-1.740073	22.661641	0.969100	0.016914	25.285636	-10.406491	0.000000	-4.547484	0.920425	-5.188207	12.349485	0.215539	30.271612	-14.028583	0.000000	0.004532	0.191520	-0.649463	0.008417	0.254722	-0.690054	0.007446	0.465662	-0.690054	0.005180	0.465662	-0.568280	0.004209	0.390548	-0.527688	0.002590	0.296665	-0.487097	0.032374	2.166514	-3.612117	0.000000	0.000000	6.760777	-1.740748	-15.975918	-6.816511	-10.747670	11.260990	134.613505	87.264578	-3.045955	22.142879	15.911932	-17.090471	90.892536	6.054039	2.738577	-1.730133	-15.393924
2.400000	-2.385353	-4.491487	79.459121	0.346625	0.923914	0.540353	-9.594980	-1.671940	22.240539	1.160802	0.020260	25.060779	-10.258392	0.000000	-4.646123	0.910590	-4.787595	12.290120	0.214503	30.103426	-14.065675	0.000000	0.010586	0.217251	-0.505419	0.019658	0.288944	-0.537008	0.017391	0.528225	-0.537008	0.012098	0.528225	-0.442242	0.009830	0.443019	-0.410653	0.006049	0.336522	-0.379064	0.075612	2.457592	-2.810991	0.000000	0.000000	6.292788	-2.241790	-15.877178	-8.757703	-10.338847	9.881510	132.857485	86.985164	-3.904366	22.613394	17.566790	-16.618867	91.110382	6.342229	2.694106	-0.556201	-16.537130
2.416667	-2.330732	-4.364956	79.702981	0.346099	0.924674	0.540423	-9.651566	-1.578597	21.738594	1.372592	0.023956	24.865163	-10.035044	0.000000	-4.757192	0.879687	-4.401039	12.251329	0.213826	29.875596	-14.109356	0.000000	0.017898	0.244726	-0.358518	0.033239	0.325486	-0.380926	0.029405	0.595027	-0.380926	0.020456	0.595027	-0.313703	0.016620	0.499045	-0.291296	0.010227	0.379081	-0.268889	0.127846	2.768389	-1.993971	0.000000	0.000000	5.765279	-2.692460	-15.814523	-10.589177	-9.971289	8.333733	131.128962	86.758127	-4.071030	23.243330	19.237450	-15.988362	92.511724	6.455644	2.698210	-0.059027	-17.711132
2.433333	-2.234192	-4.248621	79.981460	0.345506	0.925385	0.540469	-9.691643	-1.428477	21.281214	1.608810	0.028079	24.704831	-9.907198	0.000000	-4.858584	0.801990	-4.031222	12.257664	0.213937	29.603605	-14.184156	0.000000	0.025147	0.276250	-0.212013	0.046701	0.367413	-0.225264	0.041314	0.671675	-0.225264	0.028741	0.671675	-0.185512	0.023352	0.563330	-0.172261	0.014369	0.427912	-0.159010	0.179623	3.125000	-1.179155	0.000000	0.000000	5.226378	-3.088112	-15.816334	-12.287192	-9.661886	6.654281	129.433714	86.602361	-3.683062	24.130766	20.915404	-15.196966	94.891980	6.371727	2.757679	0.049910	-18.852846
2.450000	-2.105464	-4.140910	80.299699	0.344826	0.926042	0.540477	-9.710530	-1.239642	20.661128	1.868594	0.032613	24.669080	-9.579376	0.000000	-4.955433	0.686785	-3.687554	12.295143	0.214591	29.314347	-14.247313	0.000000	0.031226	0.310629	-0.074549	0.057989	0.413137	-0.079208	0.051301	0.755264	-0.079208	0.035688	0.755264	-0.065230	0.028996	0.633435	-0.060571	0.017842	0.481165	-0.055912	0.223042	3.513900	-0.414620	0.000000	0.000000	4.726745	-3.420879	-15.816146	-13.801066	-9.439015	4.947888	127.694425	86.532098	-2.946617	25.200962	22.551340	-14.272881	98.399601	6.089112	2.778874	-0.582594	-19.900791
2.466667	-1.951990	-4.051829	80.652802	0.344115	0.926643	0.540481	-9.698358	-1.013241	19.951646	2.136445	0.037288	24.734309	-9.148778	0.000000	-5.030713	0.536396	-3.374389	12.363379	0.215782	29.024394	-14.305240	0.000000	0.038000	0.346371	0.052269	0.070570	0.460673	0.055536	0.062431	0.842165	0.055536	0.043431	0.842165	0.045735	0.035287	0.706319	0.042468	0.021713	0.536528	0.039202	0.271432	3.918213	0.290703	0.000000	0.000000	4.293237	-3.684368	-15.786504	-15.112192	-9.264425	3.238824	125.832363	86.550229	-1.983588	26.362741	24.118832	-13.261809	102.904868	5.632248	2.747088	-2.012910	-20.832367
2.483333	-1.785219	-3.978170	81.032982	0.343389	0.927207	0.540562	-9.651489	-0.761711	19.148055	2.414034	0.042133	24.906412	-8.598727	0.000000	-5.078089	0.359854	-3.109143	12.460746	0.217481	28.753067	-14.339477	0.000000	0.045128	0.380551	0.170227	0.083807	0.506133	0.180866	0.074140	0.925272	0.180866	0.051576	0.925272	0.148949	0.041906	0.776020	0.138310	0.025786	0.589473	0.127670	0.322342	4.304869	0.946752	0.000000	0.000000	3.956871	-3.843565	-15.809956	-16.211460	-9.134556	1.550020	123.795810	86.655436	-0.868147	27.561362	25.598952	-12.187002	107.999695	5.027616	2.667430	-4.190226	-21.632723
2.500000	-1.612612	-3.900030	81.432108	0.342624	0.927742	0.540805	-9.582424	-0.501966	18.223755	2.710821	0.047313	25.187799	-7.870167	0.000000	-5.104536	0.166515	-2.913925	12.594457	0.219815	28.531532	-14.322813	0.000000	0.049690	0.412384	0.284730	0.092279	0.548471	0.302525	0.081635	1.002671	0.302525	0.056790	1.002671	0.249138	0.046142	0.840934	0.231343	0.028393	0.638783	0.213547	0.354929	4.664973	1.583581	0.000000	0.000000	3.743841	-3.970705	-15.913372	-17.095552	-9.075298	-0.060603	121.549635	86.840841	0.148560	28.654025	27.000837	-11.052101	113.197935	4.318372	2.553999	-6.645342	-22.329955
2.516667	-1.445925	-3.816017	81.843531	0.341866	0.928231	0.541255	-9.494106	-0.243924	17.218703	3.026376	0.052820	25.541953	-7.017189	0.000000	-5.105237	-0.033656	-2.780077	12.761896	0.222737	28.370740	-14.259156	0.000000	0.052691	0.439576	0.397919	0.097853	0.584636	0.422789	0.086566	1.068786	0.422789	0.060221	1.068786	0.348179	0.048929	0.896384	0.323309	0.030108	0.680904	0.298439	0.376367	4.972574	2.213105	0.000000	0.000000	3.680343	-4.063675	-16.118160	-17.776608	-9.060923	-1.610759	119.061504	87.093464	1.088876	29.585573	28.320207	-9.883956	118.311055	3.539980	2.398961	-9.290017	-22.923789
